<?xml version="1.0" encoding="iso-8859-1"?>
<!-- Generator: Adobe Illustrator 19.0.0, SVG Export Plug-In . SVG Version: 6.00 Build 0)  -->
<svg version="1.1" id="Capa_1" xmlns="http://www.w3.org/2000/svg" xmlns:xlink="http://www.w3.org/1999/xlink" x="0px" y="0px"
	 viewBox="0 0 501.338 501.338" style="enable-background:new 0 0 501.338 501.338;" xml:space="preserve">
<g>
	<g>
		<g>
			<path d="M9.101,416.875c15.012,13.058,37.351,13.058,52.363,0l33.216-28.139c7.067-6.277,17.712-6.277,24.779,0L146.04,411.2
				c1.123,1.727,2.729,3.085,4.619,3.904l2.048,1.728c15.014,13.042,37.338,13.042,52.352,0l33.237-28.149
				c7.067-6.277,17.712-6.277,24.779,0l33.216,28.139c15.014,13.053,37.349,13.053,52.363,0l33.216-28.085
				c7.065-6.271,17.703-6.271,24.768,0l33.237,28.149c15.016,13.048,37.347,13.048,52.363,0c4.495-3.809,5.051-10.54,1.243-15.035
				c-3.809-4.495-10.54-5.051-15.035-1.243c-7.063,6.287-17.715,6.287-24.779,0l-33.237-28.149
				c-15.01-13.051-37.342-13.051-52.352,0l-11.637,9.856l64.171-164.523c2.141-5.487-0.572-11.672-6.059-13.813l-57.269-22.4
				c0-0.096,0.053-0.171,0.053-0.277v-53.333c0-4.659-3.023-8.778-7.467-10.176l-56.533-17.824V26.069
				c0-12.597-12.608-26.069-48-26.069c-35.392,0-48,13.472-48,26.069v73.899l-56.533,17.899c-4.444,1.398-7.467,5.517-7.467,10.176
				v53.333c0,0.096,0,0.181,0.053,0.277l-57.269,22.4c-5.487,2.142-8.2,8.326-6.059,13.813l59.243,151.872
				c-14.899-10.179-34.788-9.031-48.416,2.795l-33.216,28.064c-7.065,6.282-17.714,6.282-24.779,0
				c-4.495-3.809-11.226-3.252-15.035,1.243C4.05,406.335,4.606,413.066,9.101,416.875z M218.669,26.997
				c2.059-2.005,10.667-5.664,26.667-5.664s24.608,3.659,26.667,5.664v66.24l-23.467-7.371c-2.084-0.65-4.316-0.65-6.4,0
				l-23.467,7.403V26.997z M154.669,135.797l90.667-28.597l90.667,28.629v37.504l-86.784-33.899c-2.497-0.97-5.268-0.97-7.765,0
				l-86.784,33.899V135.797z M93.826,219.979l151.509-59.211l151.52,59.179l-70.795,181.515c-0.368,1.061-0.563,2.174-0.576,3.296
				c-5.506,1.015-11.175-0.514-15.424-4.16l-33.216-28.139c-15.014-13.053-37.349-13.053-52.363,0l-33.237,28.149
				c-7.069,6.272-17.71,6.272-24.779,0l-3.307-2.795L93.826,219.979z"/>
			<path d="M478.445,475.275v-0.011c-7.063,6.287-17.715,6.287-24.779,0l-33.237-28.149c-15.01-13.051-37.342-13.051-52.352,0
				l-33.227,28.149c-7.065,6.282-17.714,6.282-24.779,0l-33.216-28.139c-15.014-13.053-37.349-13.053-52.363,0l-33.237,28.149
				c-7.069,6.272-17.71,6.272-24.779,0l-33.237-28.149c-15.012-13.058-37.351-13.058-52.363,0l-33.205,28.139
				c-7.065,6.282-17.714,6.282-24.779,0c-4.495-3.809-11.226-3.252-15.035,1.243s-3.252,11.226,1.243,15.035
				c15.012,13.058,37.351,13.058,52.363,0l33.216-28.139c7.067-6.277,17.712-6.277,24.779,0l33.248,28.149
				c15.014,13.042,37.338,13.042,52.352,0l33.237-28.149c7.067-6.277,17.712-6.277,24.779,0l33.216,28.139
				c15.014,13.053,37.349,13.053,52.363,0l33.216-28.139c7.065-6.271,17.703-6.271,24.768,0l33.237,28.149
				c15.016,13.048,37.347,13.048,52.363,0c4.495-3.809,5.051-10.54,1.243-15.035C489.671,472.022,482.94,471.466,478.445,475.275z"
				/>
		</g>
	</g>
</g>
<g>
</g>
<g>
</g>
<g>
</g>
<g>
</g>
<g>
</g>
<g>
</g>
<g>
</g>
<g>
</g>
<g>
</g>
<g>
</g>
<g>
</g>
<g>
</g>
<g>
</g>
<g>
</g>
<g>
</g>
</svg>
